<svg height="22" viewBox="0 0 169 22" width="169" xmlns="http://www.w3.org/2000/svg"><g fill="#fff" transform="translate(.72 .81)"><path d="m0 20.19h7.23c5.01 0 7.8-2.13 7.8-5.19 0-2.7-2.22-4.98-6.72-5.19v-.09c4.26-.6 5.67-2.28 5.67-4.29 0-2.25-2.01-3.99-6.84-3.99h-7.11l.09.18.75.09c1.56.12 1.74.21 1.74.42v17.28c0 .18-.39.39-1.44.48l-1.08.12zm7.11-.27-2.1-.54v-9.27c.48-.06 1.23-.09 1.89-.09 3.3 0 5.52 2.19 5.52 5.13 0 2.28-1.35 4.53-4.62 4.68.03.03-.69.09-.69.09zm-2.1-10.2v-7.92h1.56c3.18 0 4.74 1.29 4.74 3.93 0 2.22-1.59 3.9-4.83 3.96z"/><path d="m26.28 20.67 3.99-1.05.03-.15-1.17-.18c-.63-.09-.75-.3-.75-.96v-10.83h-4.14l.09.18.42.03c1.23.09 1.5.3 1.5 1.53v8.4c-.93.84-2.01 1.44-3.42 1.44-1.77 0-2.67-.87-2.67-2.64v-8.94h-4.14l.09.18.42.03c1.53.12 1.53.21 1.53.39v8.73c0 1.23.24 2.22.9 2.88.6.6 1.32.87 2.34.87 2.13 0 3.87-1.62 5.01-2.64h.03z"/><path d="m30.27 20.19h5.94l-.09-.18-.42-.03c-1.32-.09-1.5-.15-1.5-.39v-4.86l1.41-1.35 3.84 6.45.15.36h4.17l-.09-.18-.33-.03c-1.26-.12-1.47-.39-2.43-1.95l-3.75-6.18c-.03 0 .57-.6.57-.6 2.4-2.4 3.09-3.36 4.47-3.48l.63-.06.09-.18h-5.67l.06.18.39.03c1.11.09 1.59.36 1.59.84 0 .57-.99 1.74-2.13 2.88l-2.97 2.91v-14.37l-3.96.99-.03.12.69.12c1.02.18 1.2.51 1.2 1.71v16.59c0 .36-.33.39-1.23.45l-.51.03z"/><path d="m51.12 20.58c3.78 0 6.69-2.97 6.69-6.81 0-3.78-2.88-6.69-6.69-6.69s-6.72 3.06-6.72 6.81c0 3.78 2.88 6.69 6.72 6.69zm.03-.24c-1.02 0-1.89-.39-2.55-1.05-1.17-1.14-1.71-3.33-1.71-5.79 0-3.21 1.59-6.18 4.17-6.18 1.08 0 1.92.48 2.58 1.11 1.14 1.14 1.65 3.3 1.65 5.61 0 3.36-1.68 6.3-4.14 6.3z"/><path d="m58.77 20.19h6l-.09-.18-.42-.03c-1.32-.09-1.5-.15-1.5-.39v-9.42c.96-.9 2.16-1.56 3.57-1.56 1.74 0 2.64.87 2.64 2.64v8.28c0 .24-.18.39-1.23.45l-.54.03-.09.18h5.97l-.09-.18-.42-.03c-1.5-.12-1.5-.24-1.5-.42v-8.7c0-1.29-.3-2.25-.96-2.91-.54-.57-1.32-.84-2.25-.84-2.13 0-3.93 1.71-5.07 2.7l-.09-.06.09-2.58-4.02 1.05-.03.12.69.12c1.02.15 1.23.51 1.23 2.37v8.7c0 .36-.33.39-1.26.45l-.54.03z"/><path d="m78.27 20.58c1.56 0 2.76-1.11 3.96-2.31l-.15-.09c-.69.57-1.44 1.17-2.58 1.17-1.17 0-1.95-.63-1.92-1.92l.21-8.88h3.57l.42-1.05h-3.99l.03-2.67-.27-.03-4.14 3.54-.09.24 2.34.03-.18 9.06c-.03 2.25 1.32 2.91 2.79 2.91z"/><path d="m88.44 20.19h7.71l-.09-.18-.87-.09c-1.56-.12-1.74-.21-1.74-.42v-8.7h10.11v8.61c0 .18-.39.39-1.44.48l-1.2.12-.09.18h7.71l-.09-.18-.75-.09c-1.56-.12-1.74-.21-1.74-.42v-17.28c0-.18.39-.39 1.44-.48l1.08-.12.09-.18h-7.71l.09.18.87.09c1.56.12 1.74.21 1.74.42v8.37h-10.11v-8.28c0-.18.39-.39 1.44-.48l1.2-.12.09-.18h-7.71l.09.18.75.09c1.56.12 1.74.21 1.74.42v17.28c0 .18-.39.39-1.44.48l-1.08.12z"/><path d="m116.58 20.58c3.78 0 6.69-2.97 6.69-6.81 0-3.78-2.88-6.69-6.69-6.69s-6.72 3.06-6.72 6.81c0 3.78 2.88 6.69 6.72 6.69zm.03-.24c-1.02 0-1.89-.39-2.55-1.05-1.17-1.14-1.71-3.33-1.71-5.79 0-3.21 1.59-6.18 4.17-6.18 1.08 0 1.92.48 2.58 1.11 1.14 1.14 1.65 3.3 1.65 5.61 0 3.36-1.68 6.3-4.14 6.3z"/><path d="m124.23 20.19h6l-.09-.18-.42-.03c-1.32-.09-1.5-.15-1.5-.39v-9.57c.87-.81 1.89-1.41 3.21-1.41 1.74 0 2.49.87 2.49 2.64v8.28c0 .24-.18.39-1.2.45l-.54.03-.09.18h5.94l-.09-.18-.42-.03c-1.5-.12-1.5-.24-1.5-.42v-9.3l.06-.15c.42-.81 1.83-1.5 3.12-1.5 1.8 0 2.52.87 2.52 2.64v8.28c0 .24-.18.39-1.23.45l-.54.03-.09.18h5.97l-.09-.18-.39-.03c-1.5-.12-1.5-.24-1.5-.42v-8.64c0-1.17-.3-2.28-.93-2.91-.6-.6-1.29-.9-2.34-.9-2.07 0-3.6 1.56-4.65 2.67l-.03-.03c-.09-.75-.42-1.35-.78-1.74-.54-.54-1.32-.9-2.34-.9-2.07 0-3.6 1.62-4.59 2.61l-.06-.03.12-2.52-4.02 1.05-.03.12.69.12c1.02.15 1.23.51 1.23 2.37v8.7c0 .36-.33.39-1.26.45l-.54.03z"/><path d="m152.4 20.58c2.43 0 4.05-1.47 5.4-3.81l-.21-.09c-1.14 1.8-2.34 2.4-4.17 2.4-2.64 0-4.71-2.34-4.71-5.88 0-.45.06-1.17.12-1.62l8.61.03c.03-.21.06-.27.06-.42 0-2.28-1.71-4.11-4.74-4.11-3.81 0-6.33 3.21-6.33 7.05 0 3.6 2.58 6.45 5.97 6.45zm-3.51-9.27c.48-2.13 2.01-3.93 3.66-3.93 1.83 0 2.61 1.86 2.61 3.87z"/><path d="m163.05 20.58c2.97 0 4.89-1.89 4.89-4.08 0-2.52-1.89-3.3-3.9-4.02-1.83-.66-3.03-1.23-3.03-2.79 0-1.41.9-2.31 2.52-2.31.96 0 1.62.48 2.07.84l1.53 2.46.18-.03-.15-3.33-.96.33c-.78-.36-1.65-.54-2.64-.54-2.31 0-4.2 1.53-4.2 3.69 0 2.22 1.8 3.12 3.48 3.69 2.1.69 3.33 1.56 3.33 3.18 0 1.5-1.14 2.64-2.94 2.64-1.44 0-2.73-.96-3.51-2.64l-.63-1.35-.18.03.33 3.54c1.11.42 2.31.69 3.81.69z"/></g></svg>