<svg height="27" viewBox="0 0 214 27" width="214" xmlns="http://www.w3.org/2000/svg"><g transform="translate(.912 .426)"><path d="m0 25.574h9.158c6.346 0 9.88-2.698 9.88-6.574 0-3.42-2.812-6.308-8.512-6.574v-.114c5.396-.76 7.182-2.888 7.182-5.434 0-2.85-2.546-5.054-8.664-5.054h-9.006l.114.228.95.114c1.976.152 2.204.266 2.204.532v21.888c0 .228-.494.494-1.824.608l-1.368.152zm9.006-.342-2.66-.684v-11.742c.608-.076 1.558-.114 2.394-.114 4.18 0 6.992 2.774 6.992 6.498 0 2.888-1.71 5.738-5.852 5.928.038.038-.874.114-.874.114zm-2.66-12.92v-10.032h1.976c4.028 0 6.004 1.634 6.004 4.978 0 2.812-2.014 4.94-6.118 5.016z"/><path d="m33.288 26.182 5.054-1.33.038-.19-1.482-.228c-.798-.114-.95-.38-.95-1.216v-13.718h-5.244l.114.228.532.038c1.558.114 1.9.38 1.9 1.938v10.64c-1.178 1.064-2.546 1.824-4.332 1.824-2.242 0-3.382-1.102-3.382-3.344v-11.324h-5.244l.114.228.532.038c1.938.152 1.938.266 1.938.494v11.058c0 1.558.304 2.812 1.14 3.648.76.76 1.672 1.102 2.964 1.102 2.698 0 4.902-2.052 6.346-3.344h.038z"/><path d="m38.342 25.574h7.524l-.114-.228-.532-.038c-1.672-.114-1.9-.19-1.9-.494v-6.156l1.786-1.71 4.864 8.17.19.456h5.282l-.114-.228-.418-.038c-1.596-.152-1.862-.494-3.078-2.47l-4.75-7.828c-.038 0 .722-.76.722-.76 3.04-3.04 3.914-4.256 5.662-4.408l.798-.076.114-.228h-7.182l.076.228.494.038c1.406.114 2.014.456 2.014 1.064 0 .722-1.254 2.204-2.698 3.648l-3.762 3.686v-18.202l-5.016 1.254-.038.152.874.152c1.292.228 1.52.646 1.52 2.166v21.014c0 .456-.418.494-1.558.57l-.646.038z"/><path d="m64.752 26.068c4.788 0 8.474-3.762 8.474-8.626 0-4.788-3.648-8.474-8.474-8.474s-8.512 3.876-8.512 8.626c0 4.788 3.648 8.474 8.512 8.474zm.038-.304c-1.292 0-2.394-.494-3.23-1.33-1.482-1.444-2.166-4.218-2.166-7.334 0-4.066 2.014-7.828 5.282-7.828 1.368 0 2.432.608 3.268 1.406 1.444 1.444 2.09 4.18 2.09 7.106 0 4.256-2.128 7.98-5.244 7.98z"/><path d="m74.442 25.574h7.6l-.114-.228-.532-.038c-1.672-.114-1.9-.19-1.9-.494v-11.932c1.216-1.14 2.736-1.976 4.522-1.976 2.204 0 3.344 1.102 3.344 3.344v10.488c0 .304-.228.494-1.558.57l-.684.038-.114.228h7.562l-.114-.228-.532-.038c-1.9-.152-1.9-.304-1.9-.532v-11.02c0-1.634-.38-2.85-1.216-3.686-.684-.722-1.672-1.064-2.85-1.064-2.698 0-4.978 2.166-6.422 3.42l-.114-.076.114-3.268-5.092 1.33-.038.152.874.152c1.292.19 1.558.646 1.558 3.002v11.02c0 .456-.418.494-1.596.57l-.684.038z"/><path d="m99.142 26.068c1.976 0 3.496-1.406 5.016-2.926l-.19-.114c-.874.722-1.824 1.482-3.268 1.482-1.482 0-2.47-.798-2.432-2.432l.266-11.248h4.522l.532-1.33h-5.054l.038-3.382-.342-.038-5.244 4.484-.114.304 2.964.038-.228 11.476c-.038 2.85 1.672 3.686 3.534 3.686z"/><path d="m112.024 25.574h9.766l-.114-.228-1.102-.114c-1.976-.152-2.204-.266-2.204-.532v-11.02h12.806v10.906c0 .228-.494.494-1.824.608l-1.52.152-.114.228h9.766l-.114-.228-.95-.114c-1.976-.152-2.204-.266-2.204-.532v-21.888c0-.228.494-.494 1.824-.608l1.368-.152.114-.228h-9.766l.114.228 1.102.114c1.976.152 2.204.266 2.204.532v10.602h-12.806v-10.488c0-.228.494-.494 1.824-.608l1.52-.152.114-.228h-9.766l.114.228.95.114c1.976.152 2.204.266 2.204.532v21.888c0 .228-.494.494-1.824.608l-1.368.152z"/><path d="m147.668 26.068c4.788 0 8.474-3.762 8.474-8.626 0-4.788-3.648-8.474-8.474-8.474s-8.512 3.876-8.512 8.626c0 4.788 3.648 8.474 8.512 8.474zm.038-.304c-1.292 0-2.394-.494-3.23-1.33-1.482-1.444-2.166-4.218-2.166-7.334 0-4.066 2.014-7.828 5.282-7.828 1.368 0 2.432.608 3.268 1.406 1.444 1.444 2.09 4.18 2.09 7.106 0 4.256-2.128 7.98-5.244 7.98z"/><path d="m157.358 25.574h7.6l-.114-.228-.532-.038c-1.672-.114-1.9-.19-1.9-.494v-12.122c1.102-1.026 2.394-1.786 4.066-1.786 2.204 0 3.154 1.102 3.154 3.344v10.488c0 .304-.228.494-1.52.57l-.684.038-.114.228h7.524l-.114-.228-.532-.038c-1.9-.152-1.9-.304-1.9-.532v-11.78l.076-.19c.532-1.026 2.318-1.9 3.952-1.9 2.28 0 3.192 1.102 3.192 3.344v10.488c0 .304-.228.494-1.558.57l-.684.038-.114.228h7.562l-.114-.228-.494-.038c-1.9-.152-1.9-.304-1.9-.532v-10.944c0-1.482-.38-2.888-1.178-3.686-.76-.76-1.634-1.14-2.964-1.14-2.622 0-4.56 1.976-5.89 3.382l-.038-.038c-.114-.95-.532-1.71-.988-2.204-.684-.684-1.672-1.14-2.964-1.14-2.622 0-4.56 2.052-5.814 3.306l-.076-.038.152-3.192-5.092 1.33-.038.152.874.152c1.292.19 1.558.646 1.558 3.002v11.02c0 .456-.418.494-1.596.57l-.684.038z"/><path d="m193.04 26.068c3.078 0 5.13-1.862 6.84-4.826l-.266-.114c-1.444 2.28-2.964 3.04-5.282 3.04-3.344 0-5.966-2.964-5.966-7.448 0-.57.076-1.482.152-2.052l10.906.038c.038-.266.076-.342.076-.532 0-2.888-2.166-5.206-6.004-5.206-4.826 0-8.018 4.066-8.018 8.93 0 4.56 3.268 8.17 7.562 8.17zm-4.446-11.742c.608-2.698 2.546-4.978 4.636-4.978 2.318 0 3.306 2.356 3.306 4.902z"/><path d="m206.53 26.068c3.762 0 6.194-2.394 6.194-5.168 0-3.192-2.394-4.18-4.94-5.092-2.318-.836-3.838-1.558-3.838-3.534 0-1.786 1.14-2.926 3.192-2.926 1.216 0 2.052.608 2.622 1.064l1.938 3.116.228-.038-.19-4.218-1.216.418c-.988-.456-2.09-.684-3.344-.684-2.926 0-5.32 1.938-5.32 4.674 0 2.812 2.28 3.952 4.408 4.674 2.66.874 4.218 1.976 4.218 4.028 0 1.9-1.444 3.344-3.724 3.344-1.824 0-3.458-1.216-4.446-3.344l-.798-1.71-.228.038.418 4.484c1.406.532 2.926.874 4.826.874z"/></g></svg>