<svg height="28" viewBox="0 0 30 28" width="30" xmlns="http://www.w3.org/2000/svg" xmlns:xlink="http://www.w3.org/1999/xlink"><mask id="a" fill="#fff"><path d="m0 27.4903993h29.9999547v-27.4903993h-29.9999547z" fill="#fff" fill-rule="evenodd"/></mask><g fill="none" fill-rule="evenodd"><g fill="#fff"><path d="m14.7354199 0-14.7354199 7.70775809v2.94708401h1.71928345l.09430669-.0521408v10.4045667h26.29705696v-10.3977657l.2266988.1206037h1.6626088v-3.02234791zm-9.74804702 8.85258686 9.74804702-5.37684136 10.2014445 5.44077041v8.91696929h-19.94949152z"/><path d="m9.74809233 11.8640986h9.97474577v-2.5694038h-9.97474577z"/><path d="m9.74809233 15.6422603h9.97474577v-2.5694039h-9.97474577z"/><path d="m1.83689477 24.2566774v-2.0489034h1.67213011v.2511822h-1.36926056v.6220614h1.26588592v.2371269h-1.26588592v.6941516h1.39238383v.2443813z"/></g><g fill="#fbf0e6" transform="translate(.000045 .000045)"><path d="m6.00221258 23.5772159c.0362718-.121964.0544077-.2484619.0544077-.3804006 0-.28292-.07571738-.5150596-.22760556-.6964186-.19450754-.2321395-.49465671-.3486627-.89954071-.3486627-.38720149 0-.6796429.1264979-.87732423.3794938-.15415516.1972279-.23123274.4343548-.23123274.7113807 0 .3046831.08931932.5590391.26705115.7612544.2022153.2085629.48105478.3128443.83697185.3128443.11742996 0 .22579197-.0126951.32553943-.0380853.09929406-.0249369.19178715-.0584883.27702589-.1002009l.35455687.2412075.15596876-.1686639-.31556469-.218991c.13148529-.1169766.22443178-.2684113.27974628-.4547577m-1.65127382.2720385c-.13873965-.145994-.20810947-.3423152-.20810947-.58851 0-.2928948.07209021-.5096188.21672402-.6506255.14463382-.1410066.34095495-.2112832.58851-.2112832.24483467 0 .43752862.0734504.57853526.2203512.14100663.1469008.21173664.3409549.21173664.5812556 0 .1101756-.0172291.2248852-.05078052.3450355-.03400481.119697-.09793387.228059-.19269395.3246327l-.29969577-.2076561-.15596875.1713843.25118223.1759182c-.04171257.0231233-.09067951.0389922-.1469008.0467-.05622129.0077077-.11652317.0117883-.18135901.0117883-.26841134 0-.47198684-.072997-.61117988-.218991"/><path d="m6.44853711 22.2077286h.31556469v1.2663393c0 .1491678.03128443.2724919.09339989.3708792.0924931.1487144.24891525.223525.46881305.223525.26297057 0 .4420626-.0807048.53682268-.2416609.05078052-.0875057.07617079-.2049357.07617079-.3527433v-1.2663393h.31556468v1.150723c0 .252089-.03808539.4456897-.11380278.5812556-.13964644.247555-.40307041.3713326-.78981851.3713326-.38720149 0-.65017206-.1237776-.78891171-.3713326-.07571738-.1355659-.11380278-.3291666-.11380278-.5812556z"/><path d="m8.85675812 24.2566321.24846185-.6139003h.90679503l.2330464.6139003h.3400481l-.83198446-2.0489035h-.35138309l-.8632689 2.0489035zm.70730015-1.7451271.34820931.9054348h-.7181817z"/><path d="m10.8675762 24.2566321v-2.0489035h.3110307v1.8045222h1.1611511v.2443813z"/><path d="m13.5412614 24.2566321v-2.0489035h.3137511v.8464932h1.1928889v-.8464932h.3137511v2.0489035h-.3137511v-.958029h-1.1928889v.958029z"/><path d="m15.9541524 22.5313638c-.1541551.1972279-.2312327.4343548-.2312327.7109273 0 .3074035.0902261.5608528.2702249.7617079.2017619.2085628.4792412.3128443.8319845.3128443.3776802 0 .6687614-.1192436.8727903-.3572773.1736512-.2026687.2607035-.4570247.2607035-.763068 0-.2824667-.0761707-.5146062-.2280589-.6959653-.1945076-.2325929-.4942033-.3486627-.8990873-.3486627-.3872015 0-.6796429.126498-.8773243.3794938m.2833735 1.3030645c-.1287649-.1555154-.192694-.3468491-.192694-.5740013 0-.2833734.0748106-.4978305.2244318-.6433711.1500746-.1455406.3436754-.2180842.5812557-.2180842.2443812 0 .4370752.0734504.5780818.2198978.1410067.1473542.2117367.3409549.2117367.581709 0 .228059-.0612087.4293675-.183626.6048323-.1224174.1750115-.3205521.2629706-.5939508.2629706-.2883608 0-.4969237-.0779844-.6252352-.2339531"/><path d="m18.3506304 22.2077286h.3151113v1.2663393c0 .1491678.0312845.2724919.0938533.3708792.0929465.1487144.2489153.223525.4683597.223525.2634239 0 .442516-.0807048.5372761-.2416609.0507805-.0875057.0761707-.2049357.0761707-.3527433v-1.2663393h.3155647v1.150723c0 .252089-.0380854.4456897-.1142562.5812556-.139193.247555-.402617.3713326-.7898185.3713326s-.6497186-.1237776-.7884583-.3713326c-.0761708-.1355659-.1138028-.3291666-.1138028-.5812556z"/><path d="m20.5478856 23.5953518h.291988c.0072544.1165231.0380854.2108298.0920397.2833734.1033746.1355659.2847336.2035755.5449838.2035755.1165232 0 .2226182-.0149621.3182851-.0448863.1854396-.0575815.2779327-.1605028.2779327-.3092172 0-.1119891-.0389922-.1913337-.1169766-.2384871-.0788911-.0466999-.2026687-.0870523-.3713326-.1215105l-.3105773-.0630223c-.2031221-.0408057-.3468491-.0856921-.431181-.1351124-.1455406-.0852388-.2185376-.2135503-.2185376-.3835743 0-.1840794.0711834-.3350608.2140036-.4533976.1423668-.1178833.3441287-.176825.6057391-.176825.2403007 0 .4443296.0516873.6125401.1555153.1682105.1038281.252089.2693182.252089.4969237h-.291988c-.0154155-.1097222-.0489669-.1936007-.0997475-.252089-.0947601-.1070018-.2552628-.1605027-.4824149-.1605027-.1831726 0-.3146579.0344582-.3949093.1033746-.0802514.0684631-.1201503.1487144-.1201503.2393939 0 .1006543.0466999.1741047.1405532.2208046.0612087.0294709.1999483.0666495.4166723.1115358l.3214589.0652893c.1555153.0317378.2747589.0748106.3590908.1296717.145994.0956668.2185376.2348599.2185376.4171257 0 .2266988-.0920397.3890151-.2770259.4869489-.1845328.0974805-.3994432.1464474-.6438245.1464474-.285187 0-.508712-.0652892-.6701215-.1954143-.1609561-.1292183-.2403007-.3046831-.2371269-.5259411"/><path d="m22.8399008 24.2567681h.3137511v-2.0489035h-.3137511z" mask="url(#a)"/><path d="m23.6579206 24.2566321v-2.0489035h.3667986l1.1584307 1.6598884v-1.6598884h.2951618v2.0489035h-.3482093l-1.1756598-1.6585282v1.6585282z" mask="url(#a)"/><path d="m26.9576572 22.1545904c.2153638 0 .4017102.0371786.5585858.1115358.2280589.1070018.3677054.294255.4184859.562213h-.3074035c-.0371786-.1496212-.115163-.25889-.232593-.3268997-.1174299-.068463-.2656909-.1029212-.4452364-.1029212-.21219 0-.3908286.0711834-.5359158.2135502-.1450872.1423669-.2180843.3541035-.2180843.6361168 0 .2434745.0598485.4420626.1795455.5948575.1201503.152795.3151113.2294192.5857896.2294192.2067493 0 .3785869-.0539543.5141528-.1614095.1360193-.1070018.2053891-.2806531.2085629-.5205004h-.7181817v-.2303259h1.0069959v1.0963152h-.1999483l-.0748106-.263424c-.1051882.1029213-.1981347.1745581-.2792929.2144571-.1364727.0689164-.3096705.1033746-.520047.1033746-.2715851 0-.5055382-.0788912-.7009526-.2357667-.2135502-.1972279-.3200986-.4674529-.3200986-.8115816 0-.3432219.1042814-.6161673.3123909-.818836.1976813-.1936007.4538509-.2901744.7680554-.2901744" mask="url(#a)"/><path d="m2.09827845 25.7051465c-.15415516.1972279-.23123274.4343549-.23123274.7109273 0 .3074036.09022611.5608528.27022493.7617079.2017619.2085629.47924119.3128443.83198447.3128443.37768015 0 .66876137-.1192435.87279026-.3572773.17410465-.2026686.26070358-.4570247.26070358-.763068 0-.2824667-.07617079-.5146062-.22760556-.6959652-.19496094-.232593-.49465671-.3486627-.89954071-.3486627-.3872015 0-.67964291.1264979-.87732423.3794937m.28337346 1.3030645c-.1287649-.1555153-.19269395-.3468491-.19269395-.5740012 0-.2833735.07481059-.4978305.22443178-.6433712.15007458-.1455406.34367533-.2180842.58080224-.2180842.24483467 0 .43752862.0734504.57853525.2198978.14100663.1473542.21173665.340955.21173665.5817091 0 .2280589-.06120867.4293674-.183626.6048323-.12241734.1750114-.32055206.2629706-.59395077.2629706-.28836083 0-.4969237-.0779844-.6252352-.2339532" mask="url(#a)"/><path d="m5.13282281 27.4304148v-.8664427h.72135547c.23123275 0 .40261702-.0589417.51369941-.1777318.11153579-.1183368.16685029-.2575298.16685029-.4175791 0-.185893-.06211546-.3305268-.18725318-.4329947-.12468432-.1029212-.28926762-.1541551-.49329652-.1541551h-1.03193278v2.0489034zm.95802899-1.1801938c-.08705233.0530475-.20040171.079798-.33959476.079798h-.61843423v-.7100205h.61843423c.11969695 0 .21355024.0145087.28246667.0430727.12513772.0539543.18725318.1564222.18725318.3069502 0 .1337522-.04352616.2271521-.13012509.2801996z" mask="url(#a)"/><path d="m7.58534075 27.4304148v-.8664427h.72135548c.23123274 0 .40216361-.0589417.5136994-.1777318.1110824-.1183368.1668503-.2575298.1668503-.4175791 0-.185893-.06256886-.3305268-.18725318-.4329947-.12513772-.1029212-.28926763-.1541551-.49329652-.1541551h-1.03193279v2.0489034zm.95757559-1.1801938c-.08659893.0530475-.19994831.079798-.33959475.079798h-.61798084v-.7100205h.61798084c.11969695 0 .21400364.0145087.28292006.0430727.12468432.0539543.18725318.1564222.18725318.3069502 0 .1337522-.04352616.2271521-.13057849.2801996z" mask="url(#a)"/><path d="m9.80979973 25.7051465c-.15415516.1972279-.23123274.4343549-.23123274.7109273 0 .3074036.09022611.5608528.27022493.7617079.20176188.2085629.47924118.3128443.83198448.3128443.3776801 0 .6687614-.1192435.8727903-.3572773.1741046-.2026686.2607035-.4570247.2607035-.763068 0-.2824667-.0761708-.5146062-.2276055-.6959652-.194961-.232593-.4946567-.3486627-.8995407-.3486627-.3872015 0-.6796429.1264979-.87732427.3794937m.28337347 1.3030645c-.12876491-.1555153-.19269396-.3468491-.19269396-.5740012 0-.2833735.07481059-.4978305.22443176-.6433712.1500746-.1455406.3436754-.2180842.5812557-.2180842.2443812 0 .4370752.0734504.5780818.2198978.1410066.1473542.2117367.340955.2117367.5817091 0 .2280589-.0612087.4293674-.183626.6048323-.1224174.1750114-.3205521.2629706-.5939508.2629706-.2883608 0-.4969237-.0779844-.6252352-.2339532" mask="url(#a)"/><path d="m12.8523239 27.4304148v-.8786844h.7073001c.1269514 0 .2198978.0122417.2792929.037632.1042815.0457931.159596.1351125.1668503.2693181l.0190427.3414084c.0040806.0797979.009068.1342056.0154155.1618629.0063476.0281106.0145088.0507805.0249369.068463h.3813073v-.0462465c-.0480601-.0185893-.0816115-.0603019-.1002008-.1251378-.011335-.0380853-.0185893-.0965736-.0217631-.174558l-.0108816-.2747589c-.0054407-.1187902-.0303776-.2049357-.0757173-.2579832-.0453398-.0530475-.112896-.0956669-.2022153-.1283115.1020144-.0476068.181359-.1101756.2380337-.1886134.0566747-.0779844.0852387-.1781852.0852387-.3010559 0-.2353134-.1079086-.3962695-.3232724-.4837752-.1138028-.0457932-.2575298-.068463-.4325413-.068463h-1.061857v2.0489034zm0-1.8104163h.7585341c.1065484 0 .1913337.0140553.254356.0417125.1187901.0530475.1781852.152795.1781852.2983356 0 .1360193-.042166.2298726-.1269513.2820133-.0852387.0521407-.2004017.0779844-.3459423.0779844h-.7181817z" mask="url(#a)"/><path d="m14.9399928 25.3815114h1.8607435v.2439278h-.7725894v1.8049756h-.3151113v-1.8049756h-.7730428z" mask="url(#a)"/><path d="m17.4267876 25.3815114h.3155647v1.2663393c0 .1491678.0312844.2724919.0933999.3708792.0924931.1487143.2489153.2235249.4683597.2235249.2634239 0 .442516-.0807047.537276-.2416608.0507806-.0875058.0766242-.2049357.0766242-.3527433v-1.2663393h.3151113v1.1507229c0 .252089-.0380854.4456898-.1142562.5812556-.139193.2475551-.402617.3713326-.7898185.3713326s-.6497186-.1237775-.7884583-.3713326c-.0757174-.1355658-.1138028-.3291666-.1138028-.5812556z" mask="url(#a)"/><path d="m20.032962 27.4304148v-2.0489034h.3667986l1.1584307 1.6598883v-1.6598883h.2951618v2.0489034h-.3482093l-1.1756598-1.6585282v1.6585282z" mask="url(#a)"/><path d="m22.7310854 27.4305508h.3137511v-2.0489034h-.3137511z" mask="url(#a)"/><path d="m23.6769633 25.3815114h1.8607435v.2439278h-.7725894v1.8049756h-.3151113v-1.8049756h-.7730428z" mask="url(#a)"/><path d="m26.8303885 26.6046419-.8664427-1.2232666h.3622647l.6587866.9847795.6587866-.9847795h.3636248l-.8659893 1.2232666v.8256369h-.3110307z" mask="url(#a)"/></g></g></svg>