<svg height="137" viewBox="0 0 169 137" width="169" xmlns="http://www.w3.org/2000/svg"><g fill="#fff"><g transform="translate(0 81.495556)"><path d="m0 15.9611111c0-9.2011111 6.66611111-15.9611111 15.8672222-15.9611111 6.5722222 0 11.0788889 2.72277778 14.0833334 7.88666667l-2.4411112 1.69-.7511111-.18777778c-2.6288889-4.13111111-5.8211111-6.10277778-10.8911111-6.10277778-7.04166664 0-12.20555553 5.35166667-12.20555553 12.67499999 0 7.2294445 4.97611111 12.5811111 11.83000003 12.5811111 5.6333333 0 11.0788889-3.1922222 11.3605555-9.6705555v-.2816667h-9.2011111v-3.0983333h12.3933333v15.4916666h-3.2861111v-1.9716666c0-1.1266667.0938889-1.9716667.3755556-2.7227778h-.0938889c-2.7227778 3.7555555-6.6661111 5.5394444-11.4544444 5.5394444-9.10722227 0-15.5855556-6.5722222-15.5855556-15.8672222z"/><path d="m65.065 30.42-.2816667.6572222h-3.5677777l-9.3888889-13.3322222h-4.9761111v13.3322222h-3.5677778v-30.2322222h8.7316666c6.2905556 0 9.8583334 2.81666667 9.8583334 8.54388889 0 3.94333331-2.2533334 6.76000001-6.2905556 7.79277781zm-18.2144444-26.38277778v10.51555558h4.225c4.9761111 0 7.2294444-1.4083334 7.2294444-5.16388891 0-3.94333333-2.2533333-5.35166667-7.2294444-5.35166667z"/><path d="m73.4211111 15.9611111c0-8.91944443 6.5722222-15.9611111 16.055-15.9611111s16.0549999 7.04166667 16.0549999 15.9611111c0 8.9194445-6.7599999 15.9611111-16.0549999 15.9611111s-16.055-7.0416666-16.055-15.9611111zm28.4483329 0c0-7.13555554-5.0699996-12.5811111-12.3933329-12.5811111s-12.3933333 5.44555556-12.3933333 12.5811111c0 7.0416667 5.1638889 12.5811111 12.3933333 12.5811111 7.2294445 0 12.3933329-5.5394444 12.3933329-12.5811111z"/><path d="m127.313333 31.6405556-13.238333-30.7955556h3.849444l7.698889 18.3083333 2.065556 4.8822223h.187778l1.971666-4.7883334 7.698889-18.4022222h3.849445l-13.238334 30.7955556z"/><path d="m151.255.845h17.369444l.375556 3.28611111h-14.177222v9.85833329h13.144444v3.2861112h-13.144444v10.6094444h14.177222l-.375556 3.2861111h-17.369444z"/></g><g transform="translate(36.428889 125.623333)"><path d="m0 5.25777778c0-3.00444445 2.25333333-5.25777778 5.44555556-5.25777778 3.19222222 0 5.44555554 2.25333333 5.44555554 5.25777778 0 3.00444444-2.25333332 5.25777782-5.44555554 5.25777782-3.09833334 0-5.44555556-2.25333338-5.44555556-5.25777782zm8.73166667 0c0-1.97166667-1.40833334-3.47388889-3.28611111-3.47388889-1.87777778 0-3.28611112 1.50222222-3.28611112 3.47388889 0 1.97166666 1.40833334 3.38 3.28611112 3.38 1.87777777.09388889 3.28611111-1.40833334 3.28611111-3.38z"/><path d="m18.3083333 10.3277778v-10.04611113h1.7838889l3.4738889 4.225c.5633333.65722222 1.0327778 1.31444444 1.69 2.25333333-.0938889-.845-.0938889-1.59611111-.0938889-2.535v-3.94333333h1.9716667v10.14000003h-1.4083333l-3.8494445-4.60055559c-.5633333-.65722222-1.1266667-1.31444444-1.7838889-2.25333333.0938889.845.0938889 1.59611111.0938889 2.535v4.22500002z"/><path d="m44.6911111 10.3277778v-10.04611113h3.2861111c2.4411111 0 3.6616667 1.12666666 3.6616667 3.09833333s-1.2205556 3.09833333-3.4738889 3.09833333h-1.4083333v3.75555557h-2.0655556zm2.0655556-5.44555558h1.0327777c1.3144445 0 1.8777778-.46944444 1.8777778-1.50222222s-.5633333-1.50222222-1.8777778-1.50222222h-1.0327777z"/><path d="m65.5344444 10.3277778-.7511111-2.15944447h-4.1311111l-.7511111 2.15944447h-2.2533333l4.0372222-10.04611113h2.1594444l4.0372223 10.04611113zm-4.3188888-3.75555558h2.9105555l-.845-2.34722222c-.1877778-.65722222-.4694444-1.31444444-.5633333-1.97166667h-.0938889c-.1877778.75111111-.3755556 1.40833334-.5633333 1.97166667z"/><path d="m82.5283333 10.0461111-.0938889.2816667h-2.0655555l-2.7227778-3.94333336h-1.1266667v3.94333336h-1.9716666v-10.04611113h3.38c2.3472222 0 3.6616666 1.03277777 3.6616666 3.09833333 0 1.31444444-.6572222 2.25333333-1.8777777 2.62888889zm-6.0088889-8.16833332v2.81666666h1.1266667c1.3144445 0 1.8777778-.37555555 1.8777778-1.40833333s-.5633333-1.40833333-1.8777778-1.40833333z"/><path d="m95.3911111 10.3277778-2.8166667-4.22500002-1.4083333 1.59611111v2.62888891h-1.9716667v-10.04611113h1.9716667v1.78388889c0 1.03277777 0 2.15944444-.0938889 3.19222222.6572222-.845 1.2205556-1.50222222 1.8777778-2.25333334l2.2533333-2.72277777h2.3472223l-3.6616667 4.31888889 3.8494444 5.72722224z"/></g><g transform="translate(65.722222 60.746111)"><path d="m3.19222222 1.78388889h-3.19222222v-1.78388889h8.45v1.78388889h-3.19222222v8.26222221h-1.97166667v-8.26222221z"/><path d="m15.3038889 9.95222222v-9.95222222h1.9716667v4.03722222h4.4127777v-4.03722222h1.9716667v10.0461111h-1.9716667v-4.1311111h-4.4127777v4.1311111h-1.9716667z"/><path d="m31.4527778 0h6.1027778l.1877777 1.69h-4.3188889v2.34722222h3.8494445v1.69h-3.8494445v2.535h4.3188889l-.1877777 1.69h-6.1027778z"/></g><path d="m65.3466667 15.3038889c.3755555 10.2338889 8.8255555 18.4961111 19.1533333 18.4961111 5.8211111 0 11.0788889-3.5677778 13.1444444-8.9194444l.2816667-.845h-12.2055555v-5.4455556h18.3083334c.563333 11.1727778-8.2622223 20.6555556-19.6227779 20.6555556-10.7972222 0-19.6227778-8.8255556-19.6227778-19.6227778.0938889-1.5022222.2816667-2.9105556.5633334-4.3188889zm29.575-5.35166668 3.7555555-3.94333333c-3.7555555-3.84944445-8.8255555-6.00888889-14.1772222-6.00888889-8.0744444 0-14.6466667 6.57222222-14.6466667 14.6466667 0 1.3144444.1877778 2.6288889.4694445 3.8494444.5633333-7.3233333 6.6661111-13.05055554 14.0833333-13.05055554 4.0372222 0 7.7927778 1.69 10.5155556 4.50666666z"/></g></svg>