<svg height="29" viewBox="0 0 192 29" width="192" xmlns="http://www.w3.org/2000/svg"><g><g transform="translate(.26668)"><path d="m24.6234555.534553c-.5333601 0-.9778268.53336004-.9778268 1.06672009l2.4001202 20.08989511c0 .53336.5333601.9778267 1.0667201.9778267h-5.0669204c.4444667 0 1.0667201-.3555733.9778267-.7111467l-1.3334001-15.73412137-8.5337607 16.44526807h-.3555734l-8.35597405-16.00080137-1.24450677 15.02297467c0 .53336.4444667.9778267.97782675.9778267h-4.17798703c.44446671 0 .80004007-.3555733.97782675-.7111467l2.75569357-20.35657511c0-.62225339-.53336004-1.06672009-.97782675-1.06672009h1.60008014l9.24490749 17.1564148 9.4226941-17.1564148z"/><path d="m46.9356841 14.2241275h-8.1781874l-2.7556936 7.4670407c0 .53336.4444667.9778267.9778268.9778267h-4.2668804c.4444667 0 .8000401-.3555733.9778268-.7111467l8.8004407-20.80104181c0-.53336005-.9778267-.71114673-.9778267-.71114673h2.3112268l9.2449075 21.51218854c.1777867.3555734.6222534.7111467.9778268.7111467h-5.3336005c.6222534 0 .9778268-.4444667.9778268-.9778267zm-.5333601-1.3334001-3.5557336-8.00040069-3.5557336 8.00040069z"/><path d="m68.0922993 21.6911682c0 .53336.9778267.9778267.9778267.9778267h-4.9780271s1.0667201-.4444667 1.0667201-.9778267c0-.6222534 0-8.2670807 0-8.2670807l-7.3781473-12.00060109c-.1777867-.35557337-.5333601-.53336005-.8889334-.53336005h5.5113871c-.4444667 0-.80004.17778668-.9778267.62225339-.0888934.08889334 5.6891738 10.13384085 5.6891738 10.13384085l5.5113871-10.04494751c-.0888933-.35557336-.4444667-.71114673-.8889334-.71114673h4.4446671c-.3555734 0-.7111467.17778668-.8889334.44446671l-7.2003606 11.82281433z"/><path d="m86.8487942 10.1350338h12.4450678v-8.17818735c0-.53336004-.5333601-.97782675-.9778268-.97782675h4.9780268c-.53336 0-.977826.44446671-.977826.97782675v19.73432175c0 .53336.53336.9778267.977826.9778267h-4.9780268c.5333601 0 .9778268-.4444667.9778268-.9778267v-10.0449476h-12.4450678v10.0449476c0 .53336.4444667.9778267 1.0667201.9778267h-5.0669204c.6222534 0 1.0667201-.4444667 1.0667201-.9778267v-19.73432175c0-.53336004-.4444667-.97782675-1.0667201-.97782675h5.0669204c-.6222534 0-1.0667201.44446671-1.0667201.97782675z"/><path d="m122.406131.00119295c6.40032.08889334 11.822814 4.9780271 11.822814 11.28945435 0 6.4003205-5.422494 11.2894543-11.822814 11.3783476-6.489214.0888934-12.178388-4.8891337-12.178388-11.3783476 0-6.48921393 5.689174-11.37834769 12.178388-11.28945435zm-9.067121 11.28945435c0 5.3336004 3.644627 10.4894142 9.067121 10.4005209 5.244707-.0888934 8.53376-5.0669205 8.53376-10.4005209 0-5.3336005-3.377947-10.22273426-8.53376-10.3116276-5.333601-.08889334-9.067121 4.9780271-9.067121 10.3116276z"/><path d="m152.007613.00119295c6.400321.08889334 11.822815 4.9780271 11.822815 11.28945435 0 6.4003205-5.422494 11.2894543-11.822815 11.3783476-6.489214.0888934-12.178388-4.8891337-12.178388-11.3783476.088894-6.48921393 5.689174-11.37834769 12.178388-11.28945435zm-8.978227 11.28945435c0 5.3336004 3.644627 10.4894142 9.067121 10.4005209 5.244707-.0888934 8.53376-5.0669205 8.53376-10.4005209 0-5.3336005-3.377947-10.22273426-8.53376-10.3116276-5.422494-.08889334-9.067121 4.9780271-9.067121 10.3116276z"/><path d="m174.675415 21.5133815h6.400321c7.378147-.8000401 9.333801-10.0449476 6.222534-15.73412138-1.155614-2.04454684-3.022374-3.0223736-5.600281-3.4668403-.088893 0-.444467-.08889334-.444467-.08889334h-6.578107v20.44546842h-4.0002c-.444467 0 .977827-.3555733.977827-.7111467v-20.00100175c0-.53336004-.444467-.97782675-1.06672-.97782675h12.267281c3.289053.44446671 6.40032 1.86676017 7.822614 5.06692044 3.20016 6.84478726-1.155614 16.26748146-9.156015 16.71194816h-6.844787z"/></g><path d="m0 28.358169h189.69839v1h-189.69839z"/></g></svg>