<svg height="45" viewBox="0 0 152 45" width="152" xmlns="http://www.w3.org/2000/svg" xmlns:xlink="http://www.w3.org/1999/xlink"><defs><path id="a" d="m2.48 7.46c1.35 0 2.3-.92 2.3-2.03 0-.97-.41-1.58-2.01-2.3-1.25-.57-1.51-.85-1.51-1.35 0-.54.41-.94 1.13-.94.61 0 .98.27 1.28.73l.17.04.68-.48c-.41-.7-1.11-1.13-2.11-1.13-1.35 0-2.17.79-2.17 1.79 0 .93.5 1.55 1.95 2.16 1.27.52 1.57.92 1.57 1.52 0 .62-.53 1.14-1.29 1.14-.7 0-1.18-.31-1.6-1.07l-.17-.04-.7.48c.58 1.05 1.37 1.48 2.48 1.48z"/><filter id="b" height="287.7%" width="392.9%" x="-146.4%" y="-67%"><feOffset dx="0" dy="2" in="SourceAlpha" result="shadowOffsetOuter1"/><feGaussianBlur in="shadowOffsetOuter1" result="shadowBlurOuter1" stdDeviation="2"/><feColorMatrix in="shadowBlurOuter1" type="matrix" values="0 0 0 0 0   0 0 0 0 0   0 0 0 0 0  0 0 0 0.5 0"/></filter><path id="c" d="m15.1569231 7.27-2.99-7.08h-.88l-3.01000002 7.08h1.08l.70000002-1.77h3.31l.71 1.77zm-3.94-4.68c.19-.46.34-.87.48-1.27h.02c.13.4.29.81.47 1.27l.85 2.1h-2.65z"/><filter id="d" height="297.7%" width="303.5%" x="-101.7%" y="-70.6%"><feOffset dx="0" dy="2" in="SourceAlpha" result="shadowOffsetOuter1"/><feGaussianBlur in="shadowOffsetOuter1" result="shadowBlurOuter1" stdDeviation="2"/><feColorMatrix in="shadowBlurOuter1" type="matrix" values="0 0 0 0 0   0 0 0 0 0   0 0 0 0 0  0 0 0 0.5 0"/></filter><path id="e" d="m19.0338462 7.27h4.17l.11-.89h-3.3v-6.19h-.98z"/><filter id="f" height="297.7%" width="427.1%" x="-163.6%" y="-70.6%"><feOffset dx="0" dy="2" in="SourceAlpha" result="shadowOffsetOuter1"/><feGaussianBlur in="shadowOffsetOuter1" result="shadowBlurOuter1" stdDeviation="2"/><feColorMatrix in="shadowBlurOuter1" type="matrix" values="0 0 0 0 0   0 0 0 0 0   0 0 0 0 0  0 0 0 0.5 0"/></filter><path id="g" d="m27.3507692 7.27h4.13l.1-.88h-3.25v-2.31h3v-.87h-3v-2.14h3.25l-.1-.88h-4.13z"/><filter id="h" height="297.7%" width="431%" x="-165.5%" y="-70.6%"><feOffset dx="0" dy="2" in="SourceAlpha" result="shadowOffsetOuter1"/><feGaussianBlur in="shadowOffsetOuter1" result="shadowBlurOuter1" stdDeviation="2"/><feColorMatrix in="shadowBlurOuter1" type="matrix" values="0 0 0 0 0   0 0 0 0 0   0 0 0 0 0  0 0 0 0.5 0"/></filter><path id="i" d="m38.1876923 7.46c1.35 0 2.3-.92 2.3-2.03 0-.97-.41-1.58-2.01-2.3-1.25-.57-1.51-.85-1.51-1.35 0-.54.41-.94 1.13-.94.61 0 .98.27 1.28.73l.17.04.68-.48c-.41-.7-1.11-1.13-2.11-1.13-1.35 0-2.17.79-2.17 1.79 0 .93.5 1.55 1.95 2.16 1.27.52 1.57.92 1.57 1.52 0 .62-.53 1.14-1.29 1.14-.7 0-1.18-.31-1.6-1.07l-.17-.04-.7.48c.58 1.05 1.37 1.48 2.48 1.48z"/><filter id="j" height="287.7%" width="392.9%" x="-146.4%" y="-67%"><feOffset dx="0" dy="2" in="SourceAlpha" result="shadowOffsetOuter1"/><feGaussianBlur in="shadowOffsetOuter1" result="shadowBlurOuter1" stdDeviation="2"/><feColorMatrix in="shadowBlurOuter1" type="matrix" values="0 0 0 0 0   0 0 0 0 0   0 0 0 0 0  0 0 0 0.5 0"/></filter><path id="k" d="m52.8315385 7.27c1.91 0 2.78-.68 2.78-2.02 0-.9-.59-1.54-1.45-1.71v-.04c.67-.2 1.08-.78 1.08-1.46 0-1.2-.8-1.85-2.45-1.85h-1.86v7.08zm-.92-6.24h.82c1.1 0 1.56.36 1.56 1.06 0 .77-.47 1.15-1.45 1.15h-.93zm0 2.96h.98c1.2 0 1.73.4 1.73 1.23s-.51 1.21-1.83 1.21h-.88z"/><filter id="l" height="297.7%" width="399.1%" x="-149.6%" y="-70.6%"><feOffset dx="0" dy="2" in="SourceAlpha" result="shadowOffsetOuter1"/><feGaussianBlur in="shadowOffsetOuter1" result="shadowBlurOuter1" stdDeviation="2"/><feColorMatrix in="shadowBlurOuter1" type="matrix" values="0 0 0 0 0   0 0 0 0 0   0 0 0 0 0  0 0 0 0.5 0"/></filter><path id="m" d="m62.5584615 7.27v-2.89l2.49-4.19h-1.11l-1.05 1.92c-.25.48-.53.95-.8 1.43h-.03c-.27-.48-.55-.95-.81-1.44l-1.05-1.91h-1.11l2.49 4.19v2.89z"/><filter id="n" height="297.7%" width="334.9%" x="-117.4%" y="-70.6%"><feOffset dx="0" dy="2" in="SourceAlpha" result="shadowOffsetOuter1"/><feGaussianBlur in="shadowOffsetOuter1" result="shadowBlurOuter1" stdDeviation="2"/><feColorMatrix in="shadowBlurOuter1" type="matrix" values="0 0 0 0 0   0 0 0 0 0   0 0 0 0 0  0 0 0 0.5 0"/></filter></defs><g fill="none"><g fill="#fff"><g transform="translate(.211122 22)"><path d="m19.4935689.42318779c-.4222434 0-.7741128.42224337-.7741128.84448674l1.9000951 15.90450027c0 .4222434.4222434.7741128.8444868.7741128h-4.011312c.3518694 0 .8444867-.2814955.7741128-.5629911l-1.0556084-12.45617943-6.7558939 13.01917053h-.2814956l-6.61514615-12.66730105-.98523453 11.89318825c0 .4222434.35186948.7741128.77411285.7741128h-3.30757307c.35186948 0 .63336505-.2814955.77411285-.5629911l2.18159074-16.11562197c0-.49261726-.42224337-.84448674-.77411284-.84448674h1.26673011l7.31888504 13.58216171 7.4596329-13.58216171z"/><path d="m37.1574166 11.2607676h-6.4743984l-2.1815907 5.9114072c0 .4222434.3518695.7741128.7741128.7741128h-3.3779469c.3518694 0 .633365-.2814955.7741128-.5629911l6.9670156-16.46749144c0-.42224337-.7741128-.56299116-.7741128-.56299116h1.8297212l7.3188851 17.0304826c.1407478.2814956.4926173.5629911.7741129.5629911h-4.2224337c.4926172 0 .7741128-.3518694.7741128-.7741128zm-.4222434-1.0556084-2.8149558-6.33365055-2.8149558 6.33365055z"/><path d="m53.9064036 17.1721748c0 .4222434.7741128.7741128.7741128.7741128h-3.9409381s.8444867-.3518694.8444867-.7741128c0-.4926173 0-6.5447722 0-6.5447722l-5.8410332-9.50047586c-.1407478-.28149558-.4222434-.42224337-.703739-.42224337h4.3631815c-.3518695 0-.6333651.14074779-.7741128.49261726-.0703739.0703739 4.5039292 8.02262404 4.5039292 8.02262404l4.3631815-7.95225014c-.0703739-.28149558-.3518695-.56299116-.7037389-.56299116h3.5186947c-.2814956 0-.5629911.14074779-.7037389.35186947l-5.7002855 9.35972806z"/><path d="m68.7552954 8.02356845h9.8523453v-6.47439834c0-.42224337-.4222433-.77411284-.7741128-.77411284h3.9409381c-.4222434 0-.7741128.35186947-.7741128.77411284v15.62300469c0 .4222434.4222433.7741128.7741128.7741128h-3.9409381c.4222434 0 .7741128-.3518694.7741128-.7741128v-7.95225013h-9.8523453v7.95225013c0 .4222434.3518695.7741128.8444868.7741128h-4.0113121c.4926173 0 .8444868-.3518694.8444868-.7741128v-15.62300469c0-.42224337-.3518695-.77411284-.8444868-.77411284h4.0113121c-.4926173 0-.8444868.35186947-.8444868.77411284z"/><path d="m96.9048534.00094442c5.0669206.07037389 9.3597276 3.94093812 9.3597276 8.93748467 0 5.06692041-4.292807 8.93748471-9.3597276 9.00785851-5.1372943.0703739-9.6412236-3.8705642-9.6412236-9.00785851 0-5.13729434 4.5039293-9.00785857 9.6412236-8.93748467zm-7.1781373 8.93748467c0 4.22243371 2.8853297 8.30411961 7.1781373 8.23374571 4.1520596-.0703739 6.7558936-4.011312 6.7558936-8.23374571 0-4.2224337-2.674208-8.09299793-6.7558936-8.16337182-4.2224337-.0703739-7.1781373 3.94093812-7.1781373 8.16337182z"/><path d="m120.33936.00094442c5.066921.07037389 9.359729 3.94093812 9.359729 8.93748467 0 5.06692041-4.292808 8.93748471-9.359729 9.00785851-5.137294.0703739-9.641223-3.8705642-9.641223-9.00785851.070374-5.13729434 4.503929-9.00785857 9.641223-8.93748467zm-7.107763 8.93748467c0 4.22243371 2.88533 8.30411961 7.178137 8.23374571 4.15206-.0703739 6.755894-4.011312 6.755894-8.23374571 0-4.2224337-2.674208-8.09299793-6.755894-8.16337182-4.292807-.0703739-7.178137 3.94093812-7.178137 8.16337182z"/><path d="m138.284704 17.031427h5.06692c5.841033-.633365 7.389259-7.95225012 4.926173-12.4561794-.914861-1.61859959-2.392713-2.39271244-4.433556-2.74458191-.070373 0-.351869-.0703739-.351869-.0703739h-5.207668v16.18599581h-3.166826c-.351869 0 .774113-.2814955.774113-.5629911v-15.83412639c0-.42224337-.351869-.77411284-.844486-.77411284h9.711597c2.603834.35186947 5.06692 1.47785179 6.192903 4.01131201 2.53346 5.41878992-.914861 12.87842282-7.248511 13.23029222h-5.41879z"/></g><path d="m0 44.450217h150.177892v1h-150.177892z"/></g><g transform="translate(41.667308 2.73)"><g><use fill="#000" filter="url(#b)" xlink:href="#a"/><use fill="#fff" xlink:href="#a"/></g><g><use fill="#000" filter="url(#d)" xlink:href="#c"/><use fill="#fff" xlink:href="#c"/></g><g><use fill="#000" filter="url(#f)" xlink:href="#e"/><use fill="#fff" xlink:href="#e"/></g><g><use fill="#000" filter="url(#h)" xlink:href="#g"/><use fill="#fff" xlink:href="#g"/></g><g><use fill="#000" filter="url(#j)" xlink:href="#i"/><use fill="#fff" xlink:href="#i"/></g><g><use fill="#000" filter="url(#l)" xlink:href="#k"/><use fill="#fff" xlink:href="#k"/></g><g><use fill="#000" filter="url(#n)" xlink:href="#m"/><use fill="#fff" xlink:href="#m"/></g></g></g></svg>